# xmcd
#
# Track frame offsets:
#	150
#	12607
#	27850
#	39202
#	52467
#	66525
#	77747
#	87732
#	100495
#	112822
#	126440
#	141445
#
# Disc length: 2101 seconds
#
# Revision: 0
# Processed by: cddbd v1.4b42PL0 Copyright (c) Steve Scherf et al.
# Submitted via: EZCDDA 4.3.3.2
#
DISCID=b308330c
DTITLE=Hoyt Axton - All-Time Favorites [CD1]
DYEAR=1900
DGENRE=
TTITLE0=Joy To The World
TTITLE1=Never Been To Spain
TTITLE2=No No Song
TTITLE3=Snowblind Friend
TTITLE4=Boney Fingers
TTITLE5=Speed Trap (Out of State Cars)
TTITLE6=Roll Your Own
TTITLE7=Free Sailing
TTITLE8=Flash Of Fire
TTITLE9=Lightnin' Bar Blues
TTITLE10=You Taught Me How To Cry
TTITLE11=Life Machine
EXTD=
EXTT0=
EXTT1=
EXTT2=
EXTT3=
EXTT4=
EXTT5=
EXTT6=
EXTT7=
EXTT8=
EXTT9=
EXTT10=
EXTT11=
PLAYORDER=
